HIERARCHY
ROOT Hips
{
	OFFSET -0.001795 -0.223333 0.028219
	CHANNELS 6 Xposition Yposition Zposition Zrotation Yrotation Xrotation 
	JOINT LeftUpLeg
	{
		OFFSET 0.069520 -0.091406 -0.006815
		CHANNELS 3 Zrotation Yrotation Xrotation
		JOINT LeftLeg
		{
			OFFSET 0.034277 -0.375199 -0.004496
			CHANNELS 3 Zrotation Yrotation Xrotation
			JOINT LeftFoot
			{
				OFFSET -0.013596 -0.397961 -0.043693
				CHANNELS 3 Zrotation Yrotation Xrotation
				JOINT LeftToe
				{
					OFFSET 0.026358 -0.055791 0.119288
					CHANNELS 3 Zrotation Yrotation Xrotation
					End Site
					{
						OFFSET 0.000000 0.000000 0.000000
					}
				}
			}
		}
	}
	JOINT RightUpLeg
	{
		OFFSET -0.067670 -0.090522 -0.004320
		CHANNELS 3 Zrotation Yrotation Xrotation
		JOINT RightLeg
		{
			OFFSET -0.038290 -0.382569 -0.008850
			CHANNELS 3 Zrotation Yrotation Xrotation
			JOINT RightFoot
			{
				OFFSET 0.015774 -0.398415 -0.042312
				CHANNELS 3 Zrotation Yrotation Xrotation
				JOINT RightToe
				{
					OFFSET -0.025372 -0.048144 0.123348
					CHANNELS 3 Zrotation Yrotation Xrotation
					End Site
					{
						OFFSET 0.000000 0.000000 0.000000
					}
				}
			}
		}
	}
	JOINT Spine
	{
		OFFSET -0.002533 0.108963 -0.026696
		CHANNELS 3 Zrotation Yrotation Xrotation
		JOINT Spine1
		{
			OFFSET 0.005487 0.135180 0.001092
			CHANNELS 3 Zrotation Yrotation Xrotation
			JOINT Spine2
			{
				OFFSET 0.001457 0.052922 0.025425
				CHANNELS 3 Zrotation Yrotation Xrotation
				JOINT Neck
				{
					OFFSET -0.002778 0.213870 -0.042857
					CHANNELS 3 Zrotation Yrotation Xrotation
					JOINT Head
					{
						OFFSET 0.005152 0.064970 0.051349
						CHANNELS 3 Zrotation Yrotation Xrotation
						End Site
						{
							OFFSET 0.000000 0.000000 0.000000
						}
					}
				}
				JOINT LeftShoulder
				{
					OFFSET 0.078845 0.121749 -0.034090
					CHANNELS 3 Zrotation Yrotation Xrotation
					JOINT LeftArm
					{
						OFFSET 0.090977 0.030469 -0.008868
						CHANNELS 3 Zrotation Yrotation Xrotation
						JOINT LeftForeArm
						{
							OFFSET 0.259612 -0.012772 -0.027456
							CHANNELS 3 Zrotation Yrotation Xrotation
							JOINT LeftHand
							{
								OFFSET 0.249234 0.008986 -0.001171
								CHANNELS 3 Zrotation Yrotation Xrotation
								End Site
								{
									OFFSET 0.000000 0.000000 0.000000
								}
							}
						}
					}
				}
				JOINT RightShoulder
				{
					OFFSET -0.081759 0.118833 -0.038615
					CHANNELS 3 Zrotation Yrotation Xrotation
					JOINT RightArm
					{
						OFFSET -0.096012 0.032551 -0.009143
						CHANNELS 3 Zrotation Yrotation Xrotation
						JOINT RightForeArm
						{
							OFFSET -0.253742 -0.013329 -0.021401
							CHANNELS 3 Zrotation Yrotation Xrotation
							JOINT RightHand
							{
								OFFSET -0.255298 0.007772 -0.005559
								CHANNELS 3 Zrotation Yrotation Xrotation
								End Site
								{
									OFFSET 0.000000 0.000000 0.000000
								}
							}
						}
					}
				}
			}
		}
	}
}
MOTION
Frames: 16
Frame Time: 0.050000
0.000000 0.907366 0.000000 -0.327027 -2.829577 -5.599801 5.855475 -0.350706 -10.139227 -4.413242 0.750388 20.305238 5.453863 10.983880 -2.099097 0.000000 0.000000 0.000000 -11.270179 0.273731 -15.695831 7.470593 -1.078594 16.358284 -7.781792 -19.510307 11.216005 0.000000 0.000000 0.000000 -2.531707 -0.334191 30.607640 4.353891 -0.744735 -21.251980 3.101042 2.821848 26.514708 -1.040190 2.529237 -28.120102 0.000000 0.000000 0.000000 -21.523233 -18.060601 8.650175 -56.230812 -28.794733 4.862161 -42.687477 -55.392520 27.292425 0.000000 0.000000 0.000000 13.310692 24.382602 11.007807 50.323553 32.276723 6.647903 34.539582 55.885881 21.891602 0.000000 0.000000 0.000000 
0.007487 0.904155 -0.008302 -0.705093 -3.380512 -5.532053 6.568872 -0.317982 -11.848898 -5.357292 1.127599 22.300103 4.707317 9.122422 -3.256186 0.000000 0.000000 0.000000 -11.430150 0.283779 -16.019562 7.476751 -1.045247 15.691807 -7.703516 -19.436452 11.631751 0.000000 0.000000 0.000000 -3.041831 -0.139130 33.927352 4.257590 -0.687089 -22.007513 4.057532 3.297582 25.311746 -1.572376 2.877970 -27.979523 0.000000 0.000000 0.000000 -24.142927 -17.114986 8.268955 -53.423173 -27.094636 3.710800 -51.729824 -54.836508 32.320270 0.000000 0.000000 0.000000 12.771507 25.245774 11.302345 51.306390 32.089698 6.921218 40.403683 57.723095 26.362067 0.000000 0.000000 0.000000 
0.013364 0.902030 -0.016588 -0.479265 -3.175262 -5.553552 6.891213 -0.329218 -13.547231 -6.608310 1.574689 23.648523 4.985495 9.689255 -3.346418 0.000000 0.000000 0.000000 -12.142434 0.194343 -17.194928 8.317101 -1.293777 17.527714 -8.541672 -20.857851 10.531681 0.000000 0.000000 0.000000 -3.023468 -0.147039 36.478804 3.708951 -0.541352 -21.962881 4.371226 3.938646 24.183241 -1.511080 2.904529 -25.874585 0.000000 0.000000 0.000000 -25.411216 -17.896628 8.543611 -51.198491 -26.661465 3.394236 -51.096562 -54.790369 31.460754 0.000000 0.000000 0.000000 12.865340 25.340360 11.480090 49.462076 31.087963 6.188024 43.901024 58.483315 28.917023 0.000000 0.000000 0.000000 
0.017091 0.899868 -0.024625 -0.487103 -3.386411 -5.977739 6.618612 -0.384708 -14.728153 -6.594952 1.623070 24.505514 4.232539 8.179267 -2.726266 0.000000 0.000000 0.000000 -12.898455 0.096886 -18.039037 7.995915 -1.206481 17.892738 -8.392719 -20.629757 11.493707 0.000000 0.000000 0.000000 -3.719055 0.141136 39.095111 4.032497 -0.647348 -21.818551 4.421644 4.079352 23.773268 -1.899511 3.206412 -27.914503 0.000000 0.000000 0.000000 -23.986638 -18.088801 8.445653 -53.073317 -26.853144 3.783776 -51.349630 -56.334750 32.616824 0.000000 0.000000 0.000000 11.121287 25.933616 11.313248 50.114005 31.379116 6.581391 48.185456 58.320748 31.546949 0.000000 0.000000 0.000000 
0.018010 0.897558 -0.031769 -0.612151 -2.760723 -5.952919 6.461278 -0.470863 -16.223423 -6.493729 1.569680 25.592002 4.198938 8.253695 -2.031033 0.000000 0.000000 0.000000 -13.474015 -0.025829 -18.791023 8.395936 -1.373190 19.000415 -9.626945 -22.692263 12.231547 0.000000 0.000000 0.000000 -3.606305 0.026871 40.952201 4.012704 -0.650887 -21.434850 4.143449 4.140911 23.307759 -1.511442 3.064943 -28.734159 0.000000 0.000000 0.000000 -23.042520 -18.330784 8.320118 -53.687490 -26.017568 3.558009 -51.144669 -58.363935 33.642312 0.000000 0.000000 0.000000 10.009264 25.764165 11.023560 50.956179 31.104742 6.762149 52.208355 58.711963 34.515442 0.000000 0.000000 0.000000 
0.015833 0.895033 -0.038382 -0.687764 -2.357296 -5.730074 7.006921 -0.444473 -17.793707 -7.142206 1.799080 26.573001 3.859550 7.630763 -1.583811 0.000000 0.000000 0.000000 -13.525167 -0.058259 -19.188827 7.938870 -1.293817 19.837792 -9.384828 -22.263035 11.624373 0.000000 0.000000 0.000000 -3.905278 0.089976 42.679026 4.352108 -0.636686 -22.868114 4.048859 4.171195 24.272538 -0.970333 2.875530 -30.656340 0.000000 0.000000 0.000000 -23.211610 -18.545318 8.416158 -52.856236 -26.264317 3.475311 -53.691019 -59.279079 35.965767 0.000000 0.000000 0.000000 9.966437 25.981591 11.145535 49.931122 30.380460 6.148993 56.909107 59.416357 38.308333 0.000000 0.000000 0.000000 
0.010746 0.891626 -0.043990 -0.916991 -2.573114 -5.069656 7.539759 -0.399716 -20.076646 -7.027436 1.857648 28.421465 3.639484 7.260882 -1.232823 0.000000 0.000000 0.000000 -13.051503 0.039191 -20.704893 8.106504 -1.364653 21.454489 -9.507364 -22.509114 11.279448 0.000000 0.000000 0.000000 -4.145859 0.224300 43.248527 4.216171 -0.620791 -22.581685 3.790246 4.201060 23.824787 -0.839531 2.799692 -30.828555 0.000000 0.000000 0.000000 -23.440177 -18.847467 8.625100 -51.849532 -26.281590 3.402407 -55.155039 -60.973556 38.102071 0.000000 0.000000 0.000000 10.324883 26.153259 11.325308 49.292898 29.552202 5.682862 63.667772 59.450844 43.125614 0.000000 0.000000 0.000000 
0.003392 0.888414 -0.048186 -1.250868 -2.746407 -4.419516 8.361843 -0.268912 -22.232335 -7.471980 2.140396 30.352338 3.487864 6.917027 -1.306514 0.000000 0.000000 0.000000 -12.633383 0.136668 -22.016481 8.201317 -1.415024 22.861220 -8.999638 -21.658457 10.207655 0.000000 0.000000 0.000000 -4.363551 0.339339 43.487950 4.401643 -0.655861 -22.775248 3.646315 4.169902 24.244598 -0.750617 2.742815 -31.008001 0.000000 0.000000 0.000000 -24.189839 -19.221108 8.982165 -51.138947 -26.692354 3.453991 -54.393942 -63.186325 39.187360 0.000000 0.000000 0.000000 11.133497 26.423654 11.664239 47.136310 29.134592 5.027185 69.269439 59.734735 47.500181 0.000000 0.000000 0.000000 
-0.004970 0.885529 -0.050859 -1.409832 -3.188456 -4.175717 9.278974 -0.055294 -23.481742 -7.729358 2.379695 31.876608 3.363868 6.629034 -1.390764 0.000000 0.000000 0.000000 -12.175215 0.256492 -22.748588 8.253001 -1.418927 23.882037 -8.734577 -21.218444 9.530455 0.000000 0.000000 0.000000 -4.543380 0.496456 43.917808 4.068772 -0.589230 -22.586556 3.569675 3.928055 23.704416 -1.211728 2.896991 -30.390078 0.000000 0.000000 0.000000 -24.535748 -19.581263 9.360285 -51.233047 -27.604850 3.916098 -51.879843 -65.398243 38.968281 0.000000 0.000000 0.000000 11.278989 26.798083 11.801055 44.960288 28.216633 4.312890 74.821320 60.114865 51.879698 0.000000 0.000000 0.000000 
-0.013652 0.882846 -0.052601 -1.516543 -3.610497 -3.892922 10.165543 0.175765 -24.564497 -7.975119 2.611031 33.116336 3.325157 6.580679 -1.275205 0.000000 0.000000 0.000000 -11.755041 0.378552 -23.666354 8.459439 -1.477251 25.257528 -8.450886 -20.710624 8.130320 0.000000 0.000000 0.000000 -4.477011 0.554960 44.210685 3.735161 -0.503943 -22.619441 3.248205 3.916299 23.782356 -1.256296 2.914857 -31.050869 0.000000 0.000000 0.000000 -25.239826 -20.048079 9.792482 -51.623128 -28.463974 4.356897 -48.794128 -67.745392 38.358932 0.000000 0.000000 0.000000 11.527068 27.146250 12.001443 42.827557 28.062374 3.889890 78.349232 60.784304 55.213773 0.000000 0.000000 0.000000 
-0.022303 0.879425 -0.053913 -1.629218 -4.258398 -3.686493 10.915338 0.419039 -25.555917 -7.699119 2.670049 34.537211 3.338586 6.547538 -1.493169 0.000000 0.000000 0.000000 -11.291411 0.531464 -24.476682 8.634576 -1.502555 26.742823 -8.436964 -20.689765 6.543312 0.000000 0.000000 0.000000 -4.308410 0.626574 44.956163 3.498870 -0.430133 -23.066371 3.038786 3.718660 23.739975 -1.712380 3.082200 -30.837669 0.000000 0.000000 0.000000 -26.561990 -20.182830 10.207105 -51.961949 -29.401300 4.821366 -44.982354 -69.809073 36.984659 0.000000 0.000000 0.000000 11.349610 27.466005 12.029220 40.457680 28.186046 3.552984 81.897690 61.595061 58.695993 0.000000 0.000000 0.000000 
-0.030995 0.874994 -0.055252 -1.669399 -4.911541 -3.153612 11.402096 0.620068 -26.677190 -7.248124 2.637783 35.627124 3.335399 6.396551 -2.016841 0.000000 0.000000 0.000000 -10.785277 0.724450 -25.781472 8.908148 -1.559740 28.424451 -8.453421 -20.707823 4.371517 0.000000 0.000000 0.000000 -3.989785 0.633749 45.321110 3.256225 -0.398897 -22.761855 2.919081 3.867584 23.079563 -2.339403 3.375763 -29.729334 0.000000 0.000000 0.000000 -27.657797 -20.427170 10.531474 -52.505462 -30.009098 5.278984 -43.363764 -71.217379 36.659728 0.000000 0.000000 0.000000 10.771584 27.820585 12.044607 39.632272 28.746336 3.673521 84.014568 62.794616 61.641232 0.000000 0.000000 0.000000 
-0.040220 0.870434 -0.056796 -1.806965 -5.769321 -2.723083 11.791126 0.825421 -27.470686 -6.283039 2.375126 36.502001 3.488559 6.565286 -2.638559 0.000000 0.000000 0.000000 -10.526824 0.890806 -26.866073 9.543136 -1.718115 29.862836 -8.618366 -21.051540 2.848882 0.000000 0.000000 0.000000 -3.956359 0.798547 45.637988 3.367552 -0.446892 -22.726771 2.767700 3.778591 22.751139 -2.910292 3.603363 -28.725521 0.000000 0.000000 0.000000 -28.651510 -20.268083 10.730023 -53.049352 -31.019996 5.865668 -40.541669 -72.199011 35.221078 0.000000 0.000000 0.000000 10.629965 28.387746 12.210219 39.177983 30.006869 4.038334 86.436962 64.325868 65.252755 0.000000 0.000000 0.000000 
-0.050532 0.866702 -0.058686 -1.953926 -6.645589 -2.444511 12.343682 1.096495 -28.221900 -5.350096 2.103648 37.159336 3.466226 6.533130 -2.616365 0.000000 0.000000 0.000000 -10.232987 1.067286 -27.782982 10.467183 -1.973928 30.843432 -8.940914 -21.745540 1.524557 0.000000 0.000000 0.000000 -3.736756 0.893171 46.006099 3.126510 -0.388885 -22.909201 2.939005 3.979406 22.774395 -3.407513 3.855233 -28.411764 0.000000 0.000000 0.000000 -29.062822 -20.281724 10.865499 -53.180322 -31.839816 6.283182 -41.019206 -73.134407 36.253127 0.000000 0.000000 0.000000 9.841734 28.999458 12.256007 39.911100 32.095127 4.901092 86.889287 65.834254 67.268851 0.000000 0.000000 0.000000 
-0.061994 0.863721 -0.061124 -1.889789 -7.450826 -2.498586 12.659434 1.297808 -28.610779 -4.581511 1.906500 38.031211 3.530884 6.773702 -2.245378 0.000000 0.000000 0.000000 -10.105956 1.194305 -28.458905 11.667239 -2.334046 31.606048 -9.247784 -22.428223 0.861563 0.000000 0.000000 0.000000 -3.774309 1.096498 46.486275 3.349839 -0.468128 -22.851832 2.889271 4.178570 22.581829 -3.721451 4.016850 -28.220422 0.000000 0.000000 0.000000 -29.314064 -20.095270 10.799489 -53.072558 -32.427080 6.572889 -42.208270 -73.899188 37.686988 0.000000 0.000000 0.000000 8.952779 30.088793 12.468761 41.493184 35.131950 6.383620 88.256810 67.165053 70.021603 0.000000 0.000000 0.000000 
-0.074404 0.861517 -0.064265 -1.984154 -8.321805 -2.275395 13.359802 1.622376 -29.012397 -3.730610 1.650684 38.541604 3.681589 7.176907 -1.937381 0.000000 0.000000 0.000000 -9.840938 1.353094 -28.870451 13.206981 -2.790752 31.707009 -9.637679 -23.314286 -0.362395 0.000000 0.000000 0.000000 -3.578160 1.185048 46.481010 2.788209 -0.358016 -22.583556 3.441612 4.275069 22.332203 -4.292010 4.293991 -26.034433 0.000000 0.000000 0.000000 -28.737155 -20.131239 10.845540 -52.987746 -33.369025 7.030023 -43.809815 -74.980038 39.758842 0.000000 0.000000 0.000000 8.077662 31.084592 12.619050 43.124592 38.404701 8.107975 88.536910 67.459137 70.595341 0.000000 0.000000 0.000000 
